<svg xmlns="http://www.w3.org/2000/svg" xmlns:xlink="http://www.w3.org/1999/xlink" width="206.761" height="45" viewBox="0 0 206.761 45">
  <defs>
    <clipPath id="clip-path">
      <path id="Path_183" data-name="Path 183" d="M32.25,154.711H78.565V199.39H32.25Zm0,0" transform="translate(-32.25 -154.711)"/>
    </clipPath>
    <clipPath id="clip-path-2">
      <path id="Path_185" data-name="Path 185" d="M83,154.711h20.785v23.1H83Zm0,0" transform="translate(-83 -154.711)"/>
    </clipPath>
  </defs>
  <g id="REVVDOUT_LOGO" data-name="REVVDOUT LOGO" transform="translate(-32.25 -154.711)">
    <g id="Group_16216" data-name="Group 16216" transform="translate(32.25 154.711)" clip-path="url(#clip-path)">
      <path id="Path_182" data-name="Path 182" d="M78.348,199.229l-12.5-21.866H51.8l12.5,21.866ZM64.742,154.711,51.035,178.692,39.3,199.229l-7.032-12.285,4.718-8.252,7.792-13.617L38.85,154.711Zm0,0" transform="translate(-32.255 -154.711)" fill="#ff7a00" fill-rule="evenodd"/>
    </g>
    <g id="Group_16217" data-name="Group 16217" transform="translate(65.473 154.711)" clip-path="url(#clip-path-2)">
      <path id="Path_184" data-name="Path 184" d="M98.068,155.493l-.448-.782H83.566l6.475,11.326-6.475,11.326H97.62l.448-.783,6.025-10.543Zm0,0" transform="translate(-83.196 -154.711)" fill="#ff7a00" fill-rule="evenodd"/>
    </g>
    <g id="Group_16220" data-name="Group 16220" transform="translate(89.088 178.291)">
      <g id="Group_16219" data-name="Group 16219">
        <g id="Group_16218" data-name="Group 16218" transform="translate(0 0)">
          <path id="Path_186" data-name="Path 186" d="M9.511-18.871H6.064l-1.35,7.733H.469L4.131-32.25l7,.02a7.952,7.952,0,0,1,5.4,1.657A5.194,5.194,0,0,1,18.2-25.99a6.628,6.628,0,0,1-4.634,6.055l2.966,8.561v.235H12.007ZM6.667-22.39l3.161.031a4.47,4.47,0,0,0,2.782-.9,3.59,3.59,0,0,0,1.309-2.394,2.727,2.727,0,0,0-.45-2.2,2.682,2.682,0,0,0-2.066-.859l-3.631-.01Zm0,0" transform="translate(-0.469 32.25)" fill="#fff"/>
        </g>
      </g>
    </g>
    <g id="Group_16223" data-name="Group 16223" transform="translate(107.615 178.291)">
      <g id="Group_16222" data-name="Group 16222">
        <g id="Group_16221" data-name="Group 16221" transform="translate(0 0)">
          <path id="Path_187" data-name="Path 187" d="M14.4-20.283H6.309l-.982,5.646h9.5l-.6,3.5H.469L4.131-32.25H17.868l-.624,3.529H7.772L6.892-23.7h8.122Zm0,0" transform="translate(-0.469 32.25)" fill="#fff"/>
        </g>
      </g>
    </g>
    <g id="Group_16226" data-name="Group 16226" transform="translate(125.752 178.291)">
      <g id="Group_16225" data-name="Group 16225">
        <g id="Group_16224" data-name="Group 16224" transform="translate(0 0)">
          <path id="Path_188" data-name="Path 188" d="M9.9-16.416,17.007-32.25h4.869L11.453-11.138H7.014L3.219-32.25H7.781Zm0,0" transform="translate(-3.219 32.25)" fill="#fff"/>
        </g>
      </g>
    </g>
    <g id="Group_16229" data-name="Group 16229" transform="translate(144.728 178.291)">
      <g id="Group_16228" data-name="Group 16228">
        <g id="Group_16227" data-name="Group 16227" transform="translate(0 0)">
          <path id="Path_189" data-name="Path 189" d="M9.9-16.416,17.007-32.25h4.869L11.453-11.138H7.014L3.219-32.25H7.781Zm0,0" transform="translate(-3.219 32.25)" fill="#fff"/>
        </g>
      </g>
    </g>
    <g id="Group_16232" data-name="Group 16232" transform="translate(161.904 178.291)">
      <g id="Group_16231" data-name="Group 16231">
        <g id="Group_16230" data-name="Group 16230" transform="translate(0 0)">
          <path id="Path_190" data-name="Path 190" d="M.469-11.138,4.131-32.25l6.066.02a8.255,8.255,0,0,1,3.826.962,7.219,7.219,0,0,1,2.762,2.649,9.072,9.072,0,0,1,1.289,3.877,13.292,13.292,0,0,1-.031,2.588l-.1.767a12.115,12.115,0,0,1-3.652,7.446,10.307,10.307,0,0,1-7.293,2.8Zm7.3-17.583L5.327-14.636l1.77.02a5.783,5.783,0,0,0,4.695-2.148q1.78-2.148,2.046-6.485l.031-.46a5.83,5.83,0,0,0-.921-3.662,3.482,3.482,0,0,0-2.854-1.34Zm0,0" transform="translate(-0.469 32.25)" fill="#fff"/>
        </g>
      </g>
    </g>
    <g id="Group_16235" data-name="Group 16235" transform="translate(181.89 178.003)">
      <g id="Group_16234" data-name="Group 16234" transform="translate(0 0)">
        <g id="Group_16233" data-name="Group 16233" transform="translate(0 0)">
          <path id="Path_191" data-name="Path 191" d="M9.543-11A7.438,7.438,0,0,1,5.83-12a6.758,6.758,0,0,1-2.537-2.741,10.13,10.13,0,0,1-1.074-4.112,16.582,16.582,0,0,1,.511-5.063,13.588,13.588,0,0,1,2.138-4.746,9.754,9.754,0,0,1,3.478-3.058,9.052,9.052,0,0,1,4.316-.972,7.316,7.316,0,0,1,3.723,1.013A6.626,6.626,0,0,1,18.892-28.9a10.063,10.063,0,0,1,1.043,4.081,16.739,16.739,0,0,1-.552,5.258A13.377,13.377,0,0,1,17.225-14.9,9.709,9.709,0,0,1,13.8-11.934,8.936,8.936,0,0,1,9.543-11Zm6.014-11.425L15.68-23.8a6.729,6.729,0,0,0-.7-3.918,2.913,2.913,0,0,0-2.526-1.391,4.586,4.586,0,0,0-4.214,2.353,13.843,13.843,0,0,0-1.759,6.812A7,7,0,0,0,7.16-16a2.912,2.912,0,0,0,2.567,1.442,4.361,4.361,0,0,0,3.774-1.77,10.754,10.754,0,0,0,1.954-5.319Zm0,0" transform="translate(-2.19 32.69)" fill="#fff"/>
        </g>
      </g>
    </g>
    <g id="Group_16238" data-name="Group 16238" transform="translate(201.894 178.291)">
      <g id="Group_16237" data-name="Group 16237" transform="translate(0)">
        <g id="Group_16236" data-name="Group 16236" transform="translate(0 0)">
          <path id="Path_192" data-name="Path 192" d="M20.3-32.25,17.925-18.329a8.45,8.45,0,0,1-2.9,5.523,8.757,8.757,0,0,1-5.974,1.974A8.05,8.05,0,0,1,5.17-11.8a5.752,5.752,0,0,1-2.434-2.639A7.227,7.227,0,0,1,2.2-18.319L4.566-32.25H8.821L6.448-18.3a6.622,6.622,0,0,0-.01,1.524,2.572,2.572,0,0,0,2.8,2.434,4.008,4.008,0,0,0,2.936-.992,5.074,5.074,0,0,0,1.483-2.987L16.032-32.25Zm0,0" transform="translate(-2.144 32.25)" fill="#fff"/>
        </g>
      </g>
    </g>
    <g id="Group_16241" data-name="Group 16241" transform="translate(221.684 178.291)">
      <g id="Group_16240" data-name="Group 16240">
        <g id="Group_16239" data-name="Group 16239" transform="translate(0 0)">
          <path id="Path_193" data-name="Path 193" d="M19.891-28.721h-6.26L10.583-11.138H6.338L9.376-28.721H3.188l.624-3.529h16.7Zm0,0" transform="translate(-3.188 32.25)" fill="#fff"/>
        </g>
      </g>
    </g>
  </g>
</svg>
